<?xml version="1.0" encoding="utf-8"?>
<!-- Generator: Adobe Illustrator 25.3.0, SVG Export Plug-In . SVG Version: 6.00 Build 0)  -->
<svg version="1.1" id="Layer_1" xmlns="http://www.w3.org/2000/svg" xmlns:xlink="http://www.w3.org/1999/xlink" x="0px" y="0px"
	 viewBox="0 0 4194 1319.5" style="enable-background:new 0 0 4194 1319.5;" xml:space="preserve">
<style type="text/css">
	.st0{fill:#414143;}
</style>
<g>
	<g>
		<path class="st0" d="M1583.81,341.52c36.04,19.93,64.31,48.06,84.83,84.39c20.51,36.34,30.77,78.23,30.77,125.71
			c0,47.47-10.26,89.53-30.77,126.15c-20.52,36.63-48.79,64.91-84.83,84.83c-36.04,19.93-76.92,29.89-122.64,29.89
			c-63.3,0-113.4-21.1-150.32-63.3v227.68h-109.89V316.91h104.61v61.53c18.16-22.27,40.58-38.97,67.25-50.11
			c26.66-11.13,56.11-16.7,88.35-16.7C1506.89,311.63,1547.77,321.61,1583.81,341.52z M1548.64,657.99
			c26.07-26.95,39.12-62.41,39.12-106.37s-13.05-79.41-39.12-106.37c-26.08-26.95-59.33-40.44-99.77-40.44
			c-26.37,0-50.11,6.02-71.21,18.02c-21.1,12.02-37.8,29.16-50.11,51.43c-12.31,22.28-18.46,48.06-18.46,77.36
			c0,29.31,6.15,55.09,18.46,77.36c12.31,22.28,29.01,39.42,50.11,51.42c21.1,12.02,44.84,18.03,71.21,18.03
			C1489.31,698.43,1522.56,684.95,1548.64,657.99z"/>
		<path class="st0" d="M2233.48,427.64c-14.24-24.11-32.09-44.74-53.7-61.9c-10.91-8.68-22.79-16.53-35.57-23.41
			c-12.85-6.95-26.26-12.64-40.22-17.16c-12.92,5.21-29.46,14.45-43.35,30.98c-13.41,15.91-20.21,33.48-23.27,50.16
			c30.57,4.1,56.48,17.09,77.87,38.9c26.33,26.95,39.53,62.45,39.53,106.36c0,43.97-13.2,79.47-39.53,106.36
			c-26.4,26.95-59.81,40.5-100.24,40.5c-40.43,0-73.71-13.55-99.76-40.5c-35.93-37.17-38.27-88.94-39.11-106.36
			c-3.12-64.43,25.05-136.71,83.64-183.4c49.25-39.25,102.5-46.48,126.57-48.14c-22.37-5.63-46.2-8.41-71.34-8.41
			c-47.45,0-90.24,10.21-128.38,30.71c-12.85,6.95-24.8,14.8-35.78,23.62c-21.46,17.09-39.25,37.65-53.42,61.69
			c-21.4,36.33-32.09,77.67-32.09,123.93c0,46.34,10.7,87.81,32.09,124.42c14.03,24.04,31.75,44.67,53.01,61.76
			c11.11,8.96,23.13,16.95,36.19,23.97c38.14,20.49,80.93,30.78,128.38,30.78c48.07,0,91.14-10.28,129.21-30.78
			c12.92-6.95,24.87-14.87,35.85-23.69c21.47-17.16,39.25-37.86,53.42-62.04c21.33-36.61,32.03-78.08,32.03-124.42
			C2265.51,505.31,2254.81,463.98,2233.48,427.64z"/>
		<path class="st0" d="M2376.28,220.65c-13.49-12.59-20.22-28.27-20.22-47.03c0-18.75,6.73-34.42,20.22-47.03
			c13.48-12.59,30.18-18.9,50.11-18.9c19.92,0,36.62,6.02,50.11,18.02c13.48,12.02,20.22,27.11,20.22,45.27
			c0,19.34-6.59,35.6-19.78,48.79c-13.18,13.18-30.04,19.78-50.55,19.78C2406.46,239.55,2389.76,233.26,2376.28,220.65z
			 M2371.01,316.91h109.88v469.43h-109.88V316.91z"/>
		<path class="st0" d="M3033.82,363.5c35.74,34.59,53.62,85.86,53.62,153.84v269h-109.88V531.4c0-41.01-9.67-71.93-29.02-92.74
			c-19.33-20.8-46.89-31.21-82.63-31.21c-40.44,0-72.39,12.17-95.82,36.48c-23.45,24.33-35.17,59.34-35.17,105.05v237.35h-109.88
			V316.91h104.61v60.66c18.16-21.68,41.02-38.09,68.57-49.23c27.54-11.13,58.59-16.7,93.19-16.7
			C2950.59,311.63,2998.06,328.93,3033.82,363.5z"/>
		<path class="st0" d="M3509.4,760.85c-12.9,10.55-28.57,18.46-47.03,23.74c-18.47,5.27-37.96,7.91-58.47,7.91
			c-51.57,0-91.42-13.47-119.55-40.44c-28.13-26.95-42.2-66.22-42.2-117.8V408.33h-77.36v-87.91h77.36V213.18h109.88v107.25h125.71
			v87.91h-125.71v223.29c0,22.86,5.56,40.3,16.7,52.31c11.13,12.01,27.25,18.02,48.35,18.02c24.61,0,45.12-6.44,61.54-19.34
			L3509.4,760.85z"/>
		<path class="st0" d="M3646.53,316.91h109.89l-93.19,469.43h-109.88L3646.53,316.91z M3679.06,221.53
			c-12.31-12-18.47-26.51-18.47-43.51c0-19.92,6.89-36.62,20.66-50.11c13.76-13.48,31.78-20.22,54.06-20.22
			c19.33,0,35.16,5.72,47.47,17.14s18.46,25.36,18.46,41.76c0,21.69-6.89,39.27-20.66,52.74c-13.78,13.49-31.8,20.22-54.06,20.22
			C3707.19,239.55,3691.37,233.55,3679.06,221.53z"/>
		<path class="st0" d="M3962.11,628.98c-1.18,9.38-1.76,16.13-1.76,20.22c0,35.16,18.46,52.75,55.38,52.75
			c22.86,0,43.36-6.15,61.54-18.46l19.33,80.87c-29.88,18.76-67.68,28.13-113.4,28.13c-40.44,0-72.97-11.13-97.58-33.4
			c-24.61-22.27-36.92-53.04-36.92-92.3c0-12.88,1.17-25.19,3.51-36.93l44.84-221.53h-76.48l17.58-87.91h76.48l21.1-107.25h109.89
			l-21.98,107.25h126.59l-17.58,87.91h-126.58L3962.11,628.98z"/>
	</g>
	<g>
		<path class="st0" d="M665.74,477.96c0,55.14-16.52,99.51-49.56,133.33c-33.04,33.81-74.92,50.72-125.64,50.72
			s-92.41-16.91-125.16-50.72c-32.66-33.81-48.99-78.19-48.99-133.33s16.33-99.61,48.99-133.42
			c32.75-33.72,74.44-50.62,125.16-50.62s92.6,16.91,125.64,50.62C649.22,378.36,665.74,422.83,665.74,477.96z"/>
		<path class="st0" d="M502.64,43.22c-3.84-0.1-7.68-0.19-11.53-0.19c-3.94,0-7.78,0.1-11.62,0.19
			C122.74,51.38-78.69,457.79,125.24,750.76l52.25,75.11V477.96c0-58.02,13.45-109.89,40.25-155.42
			c26.8-45.53,64.07-81.17,111.9-106.91c47.74-25.74,101.34-38.61,160.89-38.61c60.23,0,114.21,12.87,162.05,38.61
			c47.74,25.74,85.01,61.38,111.81,106.91s40.25,97.4,40.25,155.42s-13.45,109.98-40.25,155.9
			c-26.8,46.01-64.07,81.84-111.81,107.49c-47.84,25.74-101.82,38.61-162.05,38.61c-59.55,0-113.15-12.87-160.89-38.61
			c-4.51-2.4-8.93-4.99-13.25-7.59v291.62l174.72,251.09C613.01,1101.17,735,925.97,856.89,750.76
			C1060.82,457.79,859.39,51.38,502.64,43.22z"/>
		<line class="st0" x1="316.39" y1="1025.39" x2="316.39" y2="733.76"/>
		<line class="st0" x1="177.49" y1="825.88" x2="177.49" y2="477.97"/>
	</g>
</g>
</svg>
