<svg width="566" height="317" viewBox="0 0 566 317" fill="none" xmlns="http://www.w3.org/2000/svg">
<g filter="url(#filter0_d_15_398)">
<path d="M417.26 11.0081H148.669V297.012H417.26V11.0081Z" fill="#402116"/>
<path d="M417.26 297.012C490.774 297.012 550.368 232.987 550.368 154.01C550.368 75.0322 490.774 11.0081 417.26 11.0081C343.747 11.0081 284.153 75.0322 284.153 154.01C284.153 232.987 343.747 297.012 417.26 297.012Z" fill="#402116"/>
<path d="M148.669 297.012C222.182 297.012 281.776 232.987 281.776 154.01C281.776 75.0322 222.182 11.0081 148.669 11.0081C75.1554 11.0081 15.5612 75.0322 15.5612 154.01C15.5612 232.987 75.1554 297.012 148.669 297.012Z" fill="#402116"/>
</g>
<path d="M286.53 11.0081H278.211V51.1905H286.53V11.0081Z" fill="#D7CC7C"/>
<path d="M286.53 235.557H278.211V297.012H286.53V235.557Z" fill="#D7CC7C"/>
<path d="M120.146 255.648H128.465V295.346L124.305 294.648L120.146 293.675V255.648Z" fill="#D7CC7C"/>
<path d="M120.146 14.3113L124.305 13.3915L128.465 12.6614V74.8272H120.146V14.3113Z" fill="#D7CC7C"/>
<path d="M437.464 223.738L441.624 225.045L445.783 226.711V293.729L441.624 294.581L437.464 295.348V223.738Z" fill="#D7CC7C"/>
<path d="M437.464 12.1899L441.624 13.2366L445.783 14.5699V68.918H437.464V12.1899Z" fill="#D7CC7C"/>
<path d="M398.757 42.9176H167.172V265.103H398.757V42.9176Z" fill="#683222"/>
<path d="M398.757 265.103C462.142 265.103 513.525 215.365 513.525 154.01C513.525 92.6554 462.142 42.9176 398.757 42.9176C335.373 42.9176 283.989 92.6554 283.989 154.01C283.989 215.365 335.373 265.103 398.757 265.103Z" fill="#683222"/>
<path d="M167.172 265.103C230.556 265.103 281.94 215.365 281.94 154.01C281.94 92.6554 230.556 42.9176 167.172 42.9176C103.787 42.9176 52.4033 92.6554 52.4033 154.01C52.4033 215.365 103.787 265.103 167.172 265.103Z" fill="#683222"/>
<path d="M393.686 51.1905H171.054V255.648H393.686V51.1905Z" fill="#3F6C3C"/>
<path d="M393.686 255.648C454.621 255.648 504.018 209.879 504.018 153.419C504.018 96.9599 454.621 51.1905 393.686 51.1905C332.752 51.1905 283.355 96.9599 283.355 153.419C283.355 209.879 332.752 255.648 393.686 255.648Z" fill="#3F6C3C"/>
<path d="M171.054 255.648C231.988 255.648 281.385 209.879 281.385 153.419C281.385 96.9599 231.988 51.1905 171.054 51.1905C110.12 51.1905 60.7225 96.9599 60.7225 153.419C60.7225 209.879 110.12 255.648 171.054 255.648Z" fill="#3F6C3C"/>
<g filter="url(#filter1_d_15_398)">
<rect x="162.816" y="113.152" width="56.2432" height="80.2562" rx="5" fill="#FAEE98"/>
</g>
<g filter="url(#filter2_d_15_398)">
<rect x="226.614" y="113.152" width="56.2432" height="80.2562" rx="5" fill="#FAEE98"/>
</g>
<g filter="url(#filter3_d_15_398)">
<rect x="290.412" y="113.152" width="56.2432" height="80.2562" rx="5" fill="#FAEE98"/>
</g>
<g filter="url(#filter4_d_15_398)">
<rect x="354.211" y="113.152" width="56.2432" height="80.2562" rx="5" fill="#FAEE98"/>
</g>
<path fill-rule="evenodd" clip-rule="evenodd" d="M190.086 136.872C189.175 138.224 187.261 140.912 186.801 141.485C186.641 141.686 185.937 142.576 185.237 143.463C183.801 145.285 182.19 147.207 180.875 148.668C179.05 150.696 177.782 152.074 177.026 152.85L176.247 153.65L176.707 154.157C176.96 154.435 177.901 155.458 178.799 156.428C183.195 161.18 186.561 165.361 189.88 170.189C190.441 171.005 190.919 171.673 190.943 171.673C190.967 171.673 191.277 171.239 191.632 170.71C194.965 165.737 199.473 160.181 204.452 154.91C204.481 154.88 204.757 154.591 205.066 154.268L205.628 153.681L204.649 152.657C199.826 147.615 194.987 141.688 191.832 136.957C191.413 136.328 191.034 135.774 190.992 135.727C190.95 135.681 190.542 136.196 190.086 136.872Z" fill="#A1312D"/>
<path fill-rule="evenodd" clip-rule="evenodd" d="M253.543 134.953C253.291 134.979 252.886 135.048 252.644 135.107C252.157 135.224 251.084 135.573 250.983 135.647C250.948 135.673 250.852 135.715 250.77 135.74C250.589 135.794 249.78 136.262 249.399 136.531C248.46 137.197 247.568 138.113 246.918 139.079C246.805 139.246 246.714 139.394 246.714 139.408C246.714 139.422 246.633 139.57 246.534 139.737C245.585 141.338 245.153 143.734 245.463 145.681C245.579 146.405 245.921 147.506 246.225 148.13L246.441 148.572L245.662 148.613C245.234 148.635 244.653 148.698 244.37 148.752C243.844 148.853 242.813 149.161 242.412 149.336C242 149.517 241.738 149.646 241.706 149.686C241.688 149.707 241.601 149.746 241.513 149.773C241.425 149.8 241.338 149.839 241.32 149.861C241.266 149.926 240.879 150.184 240.835 150.184C240.746 150.184 239.918 150.865 239.453 151.319C238.982 151.781 238.11 152.847 238.11 152.962C238.11 152.993 238.074 153.057 238.03 153.103C237.876 153.263 237.342 154.391 237.151 154.959C236.581 156.656 236.532 158.865 237.032 160.423C237.218 161.003 237.311 161.248 237.51 161.677C237.628 161.932 237.725 162.167 237.725 162.198C237.725 162.23 237.754 162.256 237.789 162.256C237.825 162.256 237.853 162.292 237.853 162.336C237.853 162.381 237.955 162.568 238.078 162.753C238.202 162.937 238.303 163.115 238.303 163.146C238.303 163.178 238.328 163.204 238.359 163.204C238.389 163.204 238.496 163.325 238.595 163.473C238.855 163.86 239.735 164.784 239.844 164.784C239.879 164.784 239.908 164.808 239.908 164.838C239.908 164.914 241.128 165.795 241.234 165.795C241.281 165.795 241.321 165.817 241.321 165.843C241.321 165.869 241.56 166.001 241.851 166.136C242.142 166.271 242.43 166.406 242.491 166.436C242.622 166.5 243.238 166.706 243.6 166.807C244.271 166.994 245.246 167.119 246.058 167.121C246.867 167.123 248.069 166.989 248.351 166.865C248.421 166.834 248.595 166.782 248.736 166.75C249.536 166.567 250.878 165.918 251.691 165.321C252.229 164.927 252.949 164.244 253.359 163.741C253.5 163.567 253.63 163.411 253.648 163.394C253.72 163.323 253.969 162.954 253.969 162.918C253.969 162.896 254.012 162.836 254.065 162.784C254.151 162.7 254.161 162.706 254.16 162.836C254.159 162.917 254.128 163.097 254.092 163.236C254.055 163.375 253.985 163.659 253.937 163.868C253.827 164.341 253.697 164.814 253.521 165.385C253.446 165.628 253.36 165.912 253.329 166.017C253.246 166.301 253.129 166.626 253.032 166.838C252.985 166.943 252.927 167.106 252.904 167.202C252.882 167.298 252.837 167.392 252.806 167.411C252.774 167.431 252.749 167.489 252.749 167.541C252.749 167.593 252.689 167.769 252.617 167.932C252.544 168.095 252.46 168.286 252.431 168.355C252.237 168.805 251.267 170.71 251.037 171.094C250.884 171.349 250.758 171.584 250.758 171.616C250.758 171.652 252.308 171.674 254.704 171.672C258.494 171.67 258.902 171.651 258.68 171.492C258.649 171.47 258.57 171.353 258.504 171.231C258.438 171.109 258.238 170.74 258.059 170.409C257.644 169.642 257.366 169.077 257.049 168.355C256.836 167.871 256.732 167.62 256.628 167.344C256.563 167.17 256.473 166.957 256.427 166.87C256.382 166.783 256.345 166.663 256.345 166.603C256.344 166.544 256.303 166.402 256.254 166.287C255.996 165.696 255.317 163.182 255.317 162.817C255.317 162.697 255.362 162.735 255.552 163.015C255.682 163.206 255.805 163.376 255.825 163.394C255.846 163.411 255.977 163.567 256.116 163.741C256.416 164.115 257.162 164.845 257.491 165.087C257.62 165.181 257.762 165.292 257.807 165.334C257.917 165.437 258.952 166.053 259.234 166.184C260.225 166.646 260.936 166.867 261.938 167.025C263.082 167.206 264.762 167.122 265.782 166.832C266.272 166.693 266.855 166.501 266.988 166.434C267.049 166.403 267.344 166.263 267.644 166.122C268.234 165.846 268.975 165.364 269.509 164.911C269.848 164.623 270.475 164.001 270.638 163.792C271.21 163.055 271.459 162.674 271.8 162.007C272.022 161.575 272.203 161.175 272.203 161.119C272.203 161.063 272.229 160.99 272.261 160.957C272.332 160.883 272.497 160.268 272.658 159.475C272.818 158.685 272.827 157.088 272.676 156.315C272.561 155.728 272.232 154.606 272.101 154.355C272.056 154.269 271.952 154.055 271.871 153.881C271.473 153.034 270.846 152.154 270.106 151.406C269.629 150.924 268.973 150.374 268.875 150.374C268.834 150.374 268.8 150.348 268.8 150.318C268.8 150.256 267.949 149.742 267.847 149.742C267.812 149.742 267.774 149.72 267.762 149.694C267.727 149.616 267.061 149.317 266.488 149.12C265.544 148.797 264.481 148.604 263.647 148.604C263.303 148.604 263.021 148.592 263.021 148.578C263.021 148.564 263.091 148.415 263.177 148.246C263.627 147.36 263.888 146.52 264.048 145.444C264.176 144.577 264.072 142.741 263.856 142.062C263.823 141.958 263.737 141.674 263.664 141.431C263.5 140.883 263.452 140.765 263.059 139.978C262.749 139.356 262.523 138.986 262.428 138.944C262.401 138.932 262.379 138.894 262.379 138.858C262.379 138.759 261.76 138.015 261.306 137.568C260.841 137.11 259.937 136.401 259.538 136.181C257.572 135.097 255.752 134.724 253.543 134.953Z" fill="#31312F"/>
<path fill-rule="evenodd" clip-rule="evenodd" d="M309.39 138.366C307.746 138.709 306.457 139.424 305.206 140.686C304.181 141.721 303.621 142.67 303.24 144.02C302.925 145.135 302.926 147.363 303.242 148.553C304.064 151.648 305.903 154.226 310.314 158.463C314.213 162.21 315.734 163.865 317.516 166.299C318.628 167.819 318.842 168.123 318.884 168.242C318.938 168.394 318.903 168.433 319.455 167.612C320.021 166.771 321.299 165.075 322.198 163.975C323.011 162.98 324.974 160.977 327.798 158.263C331.982 154.241 333.856 151.602 334.626 148.645C334.976 147.303 334.998 145.24 334.675 144.035C333.717 140.467 330.219 138.018 326.408 138.247C325.858 138.28 325.152 138.377 324.838 138.463C323.487 138.832 322.074 139.687 321.195 140.667C320.741 141.174 319.584 142.714 319.222 143.294C319.124 143.45 319.006 143.564 318.959 143.547C318.912 143.529 318.549 143.061 318.153 142.505C316.387 140.029 315.146 139.05 313.006 138.444C312.251 138.23 310.249 138.186 309.39 138.366Z" fill="#A1312D"/>
<path fill-rule="evenodd" clip-rule="evenodd" d="M381.857 133.607C380.021 136.259 378.198 138.374 375.465 141.024C368.742 147.543 367.358 149.024 365.859 151.305C365.115 152.439 364.431 153.841 364.014 155.086C363.139 157.702 363.281 160.771 364.378 162.948C366.262 166.689 370.606 168.847 374.794 168.122C377.454 167.662 379.459 166.331 381.364 163.759C381.816 163.148 382.212 162.648 382.243 162.648C382.483 162.648 381.048 167.706 380.234 169.728C379.928 170.489 378.692 172.968 378.314 173.58C378.172 173.811 378.055 174.041 378.054 174.09C378.054 174.14 380.173 174.181 382.763 174.181C385.353 174.181 387.472 174.154 387.472 174.122C387.472 174.089 387.168 173.517 386.796 172.85C385.266 170.1 383.824 166.028 383.311 163.008L383.24 162.588L383.515 162.939C385.778 165.833 386.592 166.584 388.34 167.387C389.72 168.022 390.679 168.22 392.362 168.218C394.562 168.216 396.091 167.755 397.936 166.539C400.767 164.674 402.221 161.725 402.045 158.206C401.934 155.972 401.293 153.969 400.028 151.905C398.459 149.344 396.864 147.565 392.017 142.963C390.043 141.088 387.862 138.899 387.171 138.097C385.879 136.596 383.774 133.873 383.167 132.916C382.978 132.619 382.796 132.378 382.763 132.38C382.729 132.383 382.322 132.935 381.857 133.607Z" fill="#31312F"/>
<defs>
<filter id="filter0_d_15_398" x="0.561157" y="0.00811768" width="564.807" height="316.004" filterUnits="userSpaceOnUse" color-interpolation-filters="sRGB">
<feFlood flood-opacity="0" result="BackgroundImageFix"/>
<feColorMatrix in="SourceAlpha" type="matrix" values="0 0 0 0 0 0 0 0 0 0 0 0 0 0 0 0 0 0 127 0" result="hardAlpha"/>
<feOffset dy="4"/>
<feGaussianBlur stdDeviation="7.5"/>
<feComposite in2="hardAlpha" operator="out"/>
<feColorMatrix type="matrix" values="0 0 0 0 0 0 0 0 0 0 0 0 0 0 0 0 0 0 0.1 0"/>
<feBlend mode="normal" in2="BackgroundImageFix" result="effect1_dropShadow_15_398"/>
<feBlend mode="normal" in="SourceGraphic" in2="effect1_dropShadow_15_398" result="shape"/>
</filter>
<filter id="filter1_d_15_398" x="160.816" y="113.152" width="60.2432" height="86.2562" filterUnits="userSpaceOnUse" color-interpolation-filters="sRGB">
<feFlood flood-opacity="0" result="BackgroundImageFix"/>
<feColorMatrix in="SourceAlpha" type="matrix" values="0 0 0 0 0 0 0 0 0 0 0 0 0 0 0 0 0 0 127 0" result="hardAlpha"/>
<feOffset dy="4"/>
<feGaussianBlur stdDeviation="1"/>
<feComposite in2="hardAlpha" operator="out"/>
<feColorMatrix type="matrix" values="0 0 0 0 0 0 0 0 0 0 0 0 0 0 0 0 0 0 0.25 0"/>
<feBlend mode="normal" in2="BackgroundImageFix" result="effect1_dropShadow_15_398"/>
<feBlend mode="normal" in="SourceGraphic" in2="effect1_dropShadow_15_398" result="shape"/>
</filter>
<filter id="filter2_d_15_398" x="224.614" y="113.152" width="60.2432" height="86.2562" filterUnits="userSpaceOnUse" color-interpolation-filters="sRGB">
<feFlood flood-opacity="0" result="BackgroundImageFix"/>
<feColorMatrix in="SourceAlpha" type="matrix" values="0 0 0 0 0 0 0 0 0 0 0 0 0 0 0 0 0 0 127 0" result="hardAlpha"/>
<feOffset dy="4"/>
<feGaussianBlur stdDeviation="1"/>
<feComposite in2="hardAlpha" operator="out"/>
<feColorMatrix type="matrix" values="0 0 0 0 0 0 0 0 0 0 0 0 0 0 0 0 0 0 0.25 0"/>
<feBlend mode="normal" in2="BackgroundImageFix" result="effect1_dropShadow_15_398"/>
<feBlend mode="normal" in="SourceGraphic" in2="effect1_dropShadow_15_398" result="shape"/>
</filter>
<filter id="filter3_d_15_398" x="288.412" y="113.152" width="60.2432" height="86.2562" filterUnits="userSpaceOnUse" color-interpolation-filters="sRGB">
<feFlood flood-opacity="0" result="BackgroundImageFix"/>
<feColorMatrix in="SourceAlpha" type="matrix" values="0 0 0 0 0 0 0 0 0 0 0 0 0 0 0 0 0 0 127 0" result="hardAlpha"/>
<feOffset dy="4"/>
<feGaussianBlur stdDeviation="1"/>
<feComposite in2="hardAlpha" operator="out"/>
<feColorMatrix type="matrix" values="0 0 0 0 0 0 0 0 0 0 0 0 0 0 0 0 0 0 0.25 0"/>
<feBlend mode="normal" in2="BackgroundImageFix" result="effect1_dropShadow_15_398"/>
<feBlend mode="normal" in="SourceGraphic" in2="effect1_dropShadow_15_398" result="shape"/>
</filter>
<filter id="filter4_d_15_398" x="352.211" y="113.152" width="60.2432" height="86.2562" filterUnits="userSpaceOnUse" color-interpolation-filters="sRGB">
<feFlood flood-opacity="0" result="BackgroundImageFix"/>
<feColorMatrix in="SourceAlpha" type="matrix" values="0 0 0 0 0 0 0 0 0 0 0 0 0 0 0 0 0 0 127 0" result="hardAlpha"/>
<feOffset dy="4"/>
<feGaussianBlur stdDeviation="1"/>
<feComposite in2="hardAlpha" operator="out"/>
<feColorMatrix type="matrix" values="0 0 0 0 0 0 0 0 0 0 0 0 0 0 0 0 0 0 0.25 0"/>
<feBlend mode="normal" in2="BackgroundImageFix" result="effect1_dropShadow_15_398"/>
<feBlend mode="normal" in="SourceGraphic" in2="effect1_dropShadow_15_398" result="shape"/>
</filter>
</defs>
</svg>
