<svg width="103" height="191" viewBox="0 0 103 191" fill="none" xmlns="http://www.w3.org/2000/svg">
<path d="M102.143 143.462L102.143 47.5378L3.23056e-05 47.5378L2.81126e-05 143.462L102.143 143.462Z" fill="#402116"/>
<path d="M2.81126e-05 143.462C2.6965e-05 169.717 22.8657 191 51.0715 191C79.2776 191 102.143 169.717 102.143 143.462C102.143 117.208 79.2776 95.9244 51.0715 95.9244C22.8657 95.9244 2.92602e-05 117.208 2.81126e-05 143.462Z" fill="#402116"/>
<path d="M3.23056e-05 47.5378C3.1158e-05 73.7922 22.8657 95.0756 51.0715 95.0756C79.2776 95.0756 102.143 73.7922 102.143 47.5378C102.143 21.2834 79.2776 -9.99482e-07 51.0716 -2.23241e-06C22.8657 -3.46532e-06 3.34532e-05 21.2834 3.23056e-05 47.5378Z" fill="#402116"/>
<path d="M102.143 96.7734L102.143 93.8022L87.7924 93.8022L87.7924 96.7734L102.143 96.7734Z" fill="#D7CC7C"/>
<path d="M21.9482 96.7733L21.9482 93.8022L0.000150681 93.8022L0.000150551 96.7733L21.9482 96.7733Z" fill="#D7CC7C"/>
<path d="M14.7727 37.3511L14.7727 40.3222L0.595086 40.3222L0.844111 38.8367L1.19191 37.3511L14.7727 37.3511Z" fill="#D7CC7C"/>
<path d="M100.964 37.3511L101.292 38.8367L101.553 40.3222L79.3509 40.3222L79.3509 37.3511L100.964 37.3511Z" fill="#D7CC7C"/>
<path d="M26.1689 150.678L25.7021 152.163L25.1074 153.649L1.17262 153.649L0.868284 152.163L0.594221 150.678L26.1689 150.678Z" fill="#D7CC7C"/>
<path d="M101.721 150.678L101.347 152.163L100.871 153.649L81.4612 153.649L81.4612 150.678L101.721 150.678Z" fill="#D7CC7C"/>
<path d="M90.7468 136.854L90.7468 54.1459L11.396 54.1459L11.396 136.854L90.7468 136.854Z" fill="#683222"/>
<path d="M11.396 136.854C11.396 159.491 29.1592 177.842 51.0714 177.842C72.9836 177.842 90.7468 159.491 90.7468 136.854C90.7468 114.217 72.9836 95.8658 51.0714 95.8658C29.1592 95.8658 11.396 114.217 11.396 136.854Z" fill="#683222"/>
<path d="M11.396 54.1459C11.396 76.7828 29.1592 95.1341 51.0714 95.1341C72.9836 95.1341 90.7468 76.7828 90.7468 54.1459C90.7468 31.5087 72.9836 13.1577 51.0714 13.1577C29.1592 13.1577 11.396 31.5087 11.396 54.1459Z" fill="#683222"/>
<path d="M87.7925 135.043L87.7925 55.5326L14.7729 55.5326L14.7729 135.043L87.7925 135.043Z" fill="#3F6C3C"/>
<path d="M14.7729 135.043C14.7729 156.805 31.1187 174.447 51.2827 174.447C71.4465 174.447 87.7925 156.805 87.7925 135.043C87.7925 113.281 71.4465 95.6396 51.2827 95.6396C31.1187 95.6396 14.7729 113.281 14.7729 135.043Z" fill="#3F6C3C"/>
<path d="M14.7729 55.5326C14.7729 77.2943 31.1187 94.9359 51.2827 94.9359C71.4465 94.9359 87.7925 77.2943 87.7925 55.5326C87.7925 33.7705 71.4465 16.1289 51.2827 16.1289C31.1187 16.1289 14.7729 33.7705 14.7729 55.5326Z" fill="#3F6C3C"/>
<rect x="65.6633" y="52.5904" width="20.0866" height="28.6626" rx="5" transform="rotate(90 65.6633 52.5904)" fill="#FAEE98"/>
<rect x="65.6633" y="75.3752" width="20.0866" height="28.6626" rx="5" transform="rotate(90 65.6633 75.3752)" fill="#FAEE98"/>
<rect x="65.6633" y="98.16" width="20.0866" height="28.6626" rx="5" transform="rotate(90 65.6633 98.16)" fill="#FAEE98"/>
<rect x="65.6633" y="120.945" width="20.0866" height="28.6626" rx="5" transform="rotate(90 65.6633 120.945)" fill="#FAEE98"/>
<path fill-rule="evenodd" clip-rule="evenodd" d="M57.1921 62.3297C56.7093 62.0042 55.7495 61.3207 55.5446 61.1564C55.473 61.099 55.1552 60.8477 54.8382 60.5978C54.1877 60.0849 53.5013 59.5097 52.9795 59.0401C52.2552 58.3883 51.763 57.9353 51.4858 57.6652L51.2003 57.3872L51.0192 57.5514C50.9196 57.6417 50.5546 57.9779 50.208 58.2985C48.511 59.8684 47.0178 61.0708 45.2934 62.256C45.002 62.4562 44.7636 62.6271 44.7636 62.6356C44.7636 62.6442 44.9184 62.7549 45.1075 62.8816C46.8834 64.0721 48.8677 65.6821 50.7501 67.4601C50.7609 67.4704 50.8641 67.5691 50.9794 67.6795L51.189 67.8802L51.5547 67.5304C53.3554 65.808 55.4722 64.08 57.1617 62.9533C57.3866 62.8033 57.5843 62.6682 57.601 62.6532C57.6177 62.6381 57.4337 62.4925 57.1921 62.3297Z" fill="#A1312D"/>
<path fill-rule="evenodd" clip-rule="evenodd" d="M57.8775 84.9924C57.8682 84.9024 57.8435 84.758 57.8227 84.6714C57.7809 84.4974 57.6561 84.1143 57.6296 84.0783C57.6203 84.0657 57.6055 84.0314 57.5967 84.0022C57.5771 83.9374 57.4102 83.6484 57.314 83.5126C57.0763 83.1772 56.7491 82.8586 56.404 82.6264C56.3445 82.5863 56.2916 82.5535 56.2865 82.5535C56.2815 82.5535 56.2287 82.5246 56.1692 82.4893C55.5974 82.1502 54.7416 81.9961 54.0461 82.107C53.7875 82.1482 53.3943 82.2706 53.1716 82.3791L53.0136 82.4561L52.9991 82.178C52.9911 82.0251 52.9687 81.8174 52.9494 81.7165C52.9133 81.5286 52.8035 81.1604 52.7407 81.0172C52.6762 80.87 52.63 80.7765 52.616 80.7649C52.6084 80.7586 52.5943 80.7277 52.5847 80.6962C52.5752 80.6646 52.5611 80.6337 52.5535 80.6274C52.5301 80.6081 52.438 80.4697 52.438 80.4538C52.438 80.4223 52.1948 80.1264 52.0325 79.9605C51.8677 79.7921 51.4871 79.4809 51.4458 79.4809C51.4346 79.4809 51.4121 79.468 51.3956 79.4522C51.3385 79.3973 50.9355 79.2065 50.7325 79.1383C50.1265 78.9346 49.3377 78.9174 48.7812 79.0957C48.574 79.1621 48.4867 79.1954 48.3334 79.2665C48.2423 79.3087 48.1585 79.3433 48.1472 79.3433C48.1359 79.3433 48.1266 79.3536 48.1266 79.3662C48.1266 79.3788 48.1137 79.3892 48.0979 79.3892C48.0821 79.3892 48.0152 79.4253 47.9492 79.4694C47.8832 79.5136 47.82 79.5497 47.8087 79.5497C47.7973 79.5497 47.7881 79.5586 47.7881 79.5695C47.7881 79.5805 47.7449 79.6185 47.6921 79.6539C47.5538 79.7469 47.2237 80.0612 47.2237 80.1C47.2237 80.1126 47.2151 80.1229 47.2045 80.1229C47.1773 80.1229 46.8626 80.5587 46.8626 80.5963C46.8626 80.6134 46.855 80.6274 46.8456 80.6276C46.8363 80.6276 46.7892 80.7128 46.741 80.8167C46.6927 80.9207 46.6446 81.0235 46.6339 81.0453C46.611 81.0922 46.5373 81.3122 46.5012 81.4414C46.4344 81.6811 46.3899 82.0294 46.3892 82.3195C46.3886 82.6083 46.4364 83.0374 46.4805 83.1382C46.4916 83.1634 46.5101 83.2253 46.5216 83.2758C46.587 83.5616 46.8187 84.0408 47.0319 84.3312C47.1728 84.5232 47.4166 84.7803 47.5964 84.9267C47.6583 84.9771 47.7141 85.0236 47.7203 85.0299C47.7457 85.0556 47.8775 85.1445 47.8903 85.1445C47.8979 85.1445 47.9194 85.16 47.938 85.1789C47.9681 85.2095 47.966 85.2132 47.9194 85.2128C47.8906 85.2125 47.8264 85.2015 47.7768 85.1884C47.7271 85.1754 47.6255 85.1505 47.551 85.1332C47.3821 85.0939 47.2132 85.0476 47.0093 84.9847C46.9224 84.9578 46.8208 84.927 46.7836 84.9161C46.6819 84.8864 46.5659 84.8445 46.4901 84.81C46.4529 84.7931 46.3944 84.7726 46.3601 84.7644C46.3259 84.7563 46.2922 84.7405 46.2854 84.7292C46.2786 84.718 46.2578 84.7089 46.2392 84.7089C46.2207 84.7089 46.1578 84.6877 46.0995 84.6617C46.0412 84.6358 45.9732 84.6059 45.9484 84.5952C45.7876 84.526 45.1074 84.1798 44.9702 84.0974C44.8792 84.0428 44.7952 83.998 44.7837 83.998C44.7709 83.998 44.7631 84.5513 44.7636 85.4073C44.7646 86.7605 44.7712 86.9063 44.8279 86.8271C44.8359 86.816 44.8779 86.7877 44.9213 86.7643C44.9648 86.7408 45.0968 86.6693 45.2148 86.6054C45.4887 86.4571 45.6907 86.3577 45.9484 86.2446C46.1212 86.1686 46.2109 86.1314 46.3095 86.0943C46.3716 86.0711 46.4478 86.0388 46.4788 86.0226C46.5099 86.0064 46.5527 85.9932 46.574 85.9931C46.5953 85.993 46.6461 85.9784 46.6869 85.9606C46.8982 85.8684 47.7961 85.6261 47.9263 85.6261C47.9691 85.6261 47.9554 85.6423 47.8555 85.7101C47.7874 85.7564 47.7265 85.8002 47.7203 85.8076C47.7141 85.8149 47.6583 85.8617 47.5962 85.9115C47.4627 86.0186 47.2021 86.285 47.1156 86.4027C47.082 86.4484 47.0422 86.4991 47.0272 86.5152C46.9907 86.5545 46.7705 86.9241 46.7237 87.0248C46.5589 87.3787 46.4799 87.6329 46.4234 87.9907C46.3589 88.3993 46.3889 88.9991 46.4923 89.3636C46.5419 89.5385 46.6107 89.7469 46.6345 89.7941C46.6454 89.8159 46.6955 89.9214 46.7458 90.0286C46.8446 90.2391 47.0166 90.5039 47.1786 90.6947C47.2812 90.8155 47.5033 91.0395 47.5781 91.0977C47.8411 91.3022 47.9772 91.3908 48.2154 91.5128C48.3698 91.5919 48.5125 91.6566 48.5326 91.6566C48.5527 91.6566 48.5787 91.6659 48.5905 91.6773C48.617 91.7029 48.8367 91.7618 49.1198 91.8193C49.4019 91.8765 49.9724 91.8797 50.2485 91.8255C50.4581 91.7844 50.8586 91.667 50.9482 91.6203C50.9793 91.6042 51.0554 91.5671 51.1175 91.538C51.4203 91.3959 51.7345 91.1719 52.0015 90.9078C52.1738 90.7373 52.3703 90.5031 52.3703 90.4682C52.3703 90.4534 52.3793 90.4413 52.3903 90.4413C52.4123 90.4413 52.596 90.1374 52.596 90.101C52.596 90.0885 52.6036 90.0748 52.613 90.0706C52.6407 90.0581 52.7478 89.8204 52.8178 89.6158C52.9333 89.2786 53.0024 88.8989 53.0024 88.6012C53.0023 88.4782 53.0065 88.3776 53.0116 88.3776C53.0166 88.3776 53.0699 88.4026 53.1301 88.4332C53.4467 88.594 53.7467 88.6872 54.131 88.7441C54.4406 88.79 55.0961 88.7529 55.3386 88.6758C55.3759 88.664 55.4773 88.6331 55.5641 88.6071C55.7598 88.5487 55.8018 88.5312 56.0831 88.391C56.3052 88.2803 56.4373 88.1996 56.4522 88.1655C56.4563 88.1561 56.4701 88.1483 56.4829 88.1483C56.5182 88.1483 56.784 87.9272 56.9435 87.7651C57.1071 87.599 57.3604 87.2762 57.4389 87.1337C57.8262 86.4313 57.9594 85.7814 57.8775 84.9924Z" fill="#31312F"/>
<path fill-rule="evenodd" clip-rule="evenodd" d="M56.6586 104.937C56.5361 104.35 56.2808 103.89 55.83 103.443C55.4604 103.077 55.1213 102.877 54.6392 102.741C54.241 102.629 53.4456 102.629 53.0203 102.742C51.915 103.035 50.9942 103.692 49.4811 105.267C48.1431 106.66 47.552 107.203 46.6828 107.84C46.1398 108.237 46.0312 108.313 45.9889 108.328C45.9344 108.348 45.9207 108.335 46.2137 108.532C46.514 108.734 47.1197 109.191 47.5127 109.512C47.8681 109.802 48.5834 110.503 49.5528 111.512C50.9891 113.006 51.9315 113.675 52.9874 113.95C53.4668 114.075 54.2037 114.083 54.634 113.968C55.9081 113.626 56.7828 112.377 56.701 111.015C56.6892 110.819 56.6546 110.567 56.624 110.455C56.4923 109.972 56.187 109.467 55.8368 109.154C55.6557 108.991 55.1059 108.578 54.8986 108.449C54.8428 108.414 54.8022 108.372 54.8084 108.355C54.8146 108.338 54.982 108.209 55.1805 108.067C56.0646 107.436 56.4142 106.993 56.6308 106.229C56.7073 105.959 56.7227 105.244 56.6586 104.937Z" fill="#A1312D"/>
<path fill-rule="evenodd" clip-rule="evenodd" d="M58.3585 130.818C57.4114 130.163 56.6559 129.512 55.7095 128.536C53.3813 126.134 52.8524 125.64 52.0376 125.105C51.6328 124.839 51.1321 124.595 50.6874 124.446C49.7531 124.134 48.6569 124.184 47.8795 124.576C46.5434 125.249 45.7728 126.8 46.0316 128.296C46.196 129.246 46.6715 129.962 47.5899 130.642C47.8081 130.804 47.9867 130.945 47.9867 130.956C47.9867 131.042 46.1801 130.529 45.4581 130.239C45.1863 130.129 44.301 129.688 44.0825 129.553C43.9999 129.502 43.9179 129.46 43.9001 129.46C43.8824 129.46 43.868 130.217 43.868 131.142C43.868 132.067 43.8774 132.824 43.8889 132.824C43.9005 132.824 44.105 132.715 44.3433 132.582C45.3252 132.036 46.7796 131.521 47.858 131.338L48.0082 131.312L47.8828 131.41C46.849 132.219 46.581 132.509 46.2941 133.134C46.0675 133.626 45.9968 133.969 45.9974 134.57C45.9982 135.356 46.1627 135.902 46.5971 136.561C47.2633 137.572 48.3163 138.091 49.5732 138.028C50.371 137.989 51.0863 137.76 51.8233 137.308C52.738 136.747 53.3735 136.178 55.0171 134.447C55.6864 133.742 56.4684 132.963 56.7548 132.716C57.2908 132.255 58.2632 131.503 58.605 131.286C58.7113 131.219 58.7974 131.154 58.7964 131.142C58.7953 131.13 58.5982 130.984 58.3585 130.818Z" fill="#31312F"/>
</svg>