<svg viewBox="0 0 32 32" xmlns="http://www.w3.org/2000/svg">
  <rect width="32" height="32" rx="3.125" fill="#414143"/>
  <path d="m20.144 12.131c0 1.1452-0.3431 2.0668-1.0294 2.7692-0.6862 0.7022-1.556 1.0534-2.6095 1.0534-1.0534 0-1.9193-0.3512-2.5995-1.0534-0.6783-0.7022-1.0175-1.624-1.0175-2.7692 0-1.1453 0.3392-2.0689 1.0175-2.7711 0.6802-0.70036 1.5461-1.0514 2.5995-1.0514 1.0535 0 1.9233 0.35121 2.6095 1.0514 0.6863 0.70243 1.0294 1.626 1.0294 2.7711z" fill="#fff"/>
  <path d="m16.757 3.1006c-0.0798-0.00208-0.1595-0.00395-0.2395-0.00395-0.0818 0-0.1616 0.00208-0.2414 0.00395-7.4096 0.16948-11.593 8.6105-7.3576 14.695l1.0852 1.5601v-7.226c0-1.2051 0.2793-2.2824 0.836-3.2281 0.5566-0.94565 1.3307-1.6859 2.3241-2.2205 0.9915-0.53461 2.1048-0.80191 3.3416-0.80191 1.251 0 2.3722 0.2673 3.3658 0.80191 0.9915 0.53462 1.7656 1.2748 2.3222 2.2205 0.5567 0.94564 0.836 2.023 0.836 3.2281 0 1.205-0.2793 2.2842-0.836 3.238-0.5566 0.9556-1.3307 1.6997-2.3222 2.2325-0.9936 0.5346-2.1148 0.8019-3.3658 0.8019-1.2368 0-2.3501-0.2673-3.3416-0.8019-0.0937-0.0499-0.1855-0.1036-0.2752-0.1576v6.0568l3.6289 5.2151c2.5318-3.6409 5.0655-7.2798 7.5971-10.919 4.2356-6.0849 0.052-14.526-7.3576-14.695z" fill="#fff"/>
</svg>